<mxfile host="app.diagrams.net" modified="2024-05-21T15:21:38.037Z" agent="Mozilla/5.0 (Windows NT 10.0; Win64; x64) AppleWebKit/537.36 (KHTML, like Gecko) Chrome/124.0.0.0 Safari/537.36" etag="j9vLyrGZBX5ubJHAEOcD" version="24.4.4" type="github">
  <diagram name="Page-1" id="ToxBVxYXV6sljN9sVMoe">
    <mxGraphModel dx="152" dy="445" grid="1" gridSize="10" guides="1" tooltips="1" connect="1" arrows="1" fold="1" page="1" pageScale="1" pageWidth="850" pageHeight="1100" math="0" shadow="0">
      <root>
        <mxCell id="0" />
        <mxCell id="1" parent="0" />
        <mxCell id="fNvSGR2krIGA-_UVKDzP-3" value="" style="edgeStyle=orthogonalEdgeStyle;rounded=0;orthogonalLoop=1;jettySize=auto;html=1;" edge="1" parent="1" source="fNvSGR2krIGA-_UVKDzP-1" target="fNvSGR2krIGA-_UVKDzP-2">
          <mxGeometry relative="1" as="geometry" />
        </mxCell>
        <mxCell id="fNvSGR2krIGA-_UVKDzP-1" value="Literature study about Levenshtein Distance" style="rounded=0;whiteSpace=wrap;html=1;" vertex="1" parent="1">
          <mxGeometry x="20" y="210" width="140" height="70" as="geometry" />
        </mxCell>
        <mxCell id="fNvSGR2krIGA-_UVKDzP-5" value="" style="edgeStyle=orthogonalEdgeStyle;rounded=0;orthogonalLoop=1;jettySize=auto;html=1;" edge="1" parent="1" source="fNvSGR2krIGA-_UVKDzP-2" target="fNvSGR2krIGA-_UVKDzP-4">
          <mxGeometry relative="1" as="geometry" />
        </mxCell>
        <mxCell id="fNvSGR2krIGA-_UVKDzP-2" value="Collecting 1000 Tribun News Article data as train dan test data&amp;nbsp;" style="rounded=0;whiteSpace=wrap;html=1;" vertex="1" parent="1">
          <mxGeometry x="20" y="330" width="140" height="70" as="geometry" />
        </mxCell>
        <mxCell id="fNvSGR2krIGA-_UVKDzP-7" value="" style="edgeStyle=orthogonalEdgeStyle;rounded=0;orthogonalLoop=1;jettySize=auto;html=1;" edge="1" parent="1" source="fNvSGR2krIGA-_UVKDzP-4" target="fNvSGR2krIGA-_UVKDzP-6">
          <mxGeometry relative="1" as="geometry" />
        </mxCell>
        <mxCell id="fNvSGR2krIGA-_UVKDzP-4" value="Collecting standard and nonstandard words data from KBBI (Indonesian dictionary)" style="rounded=0;whiteSpace=wrap;html=1;" vertex="1" parent="1">
          <mxGeometry x="20" y="440" width="140" height="80" as="geometry" />
        </mxCell>
        <mxCell id="fNvSGR2krIGA-_UVKDzP-9" value="" style="edgeStyle=orthogonalEdgeStyle;rounded=0;orthogonalLoop=1;jettySize=auto;html=1;" edge="1" parent="1" source="fNvSGR2krIGA-_UVKDzP-6" target="fNvSGR2krIGA-_UVKDzP-8">
          <mxGeometry relative="1" as="geometry" />
        </mxCell>
        <mxCell id="fNvSGR2krIGA-_UVKDzP-6" value="Creating the machine learning model using Levenshtein Distance Algorithm" style="rounded=0;whiteSpace=wrap;html=1;" vertex="1" parent="1">
          <mxGeometry x="20" y="570" width="140" height="80" as="geometry" />
        </mxCell>
        <mxCell id="fNvSGR2krIGA-_UVKDzP-11" value="" style="edgeStyle=orthogonalEdgeStyle;rounded=0;orthogonalLoop=1;jettySize=auto;html=1;" edge="1" parent="1" source="fNvSGR2krIGA-_UVKDzP-8" target="fNvSGR2krIGA-_UVKDzP-10">
          <mxGeometry relative="1" as="geometry" />
        </mxCell>
        <mxCell id="fNvSGR2krIGA-_UVKDzP-8" value="Training and testing the data to the machine learning model" style="rounded=0;whiteSpace=wrap;html=1;" vertex="1" parent="1">
          <mxGeometry x="20" y="690" width="140" height="80" as="geometry" />
        </mxCell>
        <mxCell id="fNvSGR2krIGA-_UVKDzP-13" value="" style="edgeStyle=orthogonalEdgeStyle;rounded=0;orthogonalLoop=1;jettySize=auto;html=1;" edge="1" parent="1" source="fNvSGR2krIGA-_UVKDzP-10" target="fNvSGR2krIGA-_UVKDzP-12">
          <mxGeometry relative="1" as="geometry" />
        </mxCell>
        <mxCell id="fNvSGR2krIGA-_UVKDzP-10" value="Evaluate the test result" style="rounded=0;whiteSpace=wrap;html=1;" vertex="1" parent="1">
          <mxGeometry x="20" y="810" width="140" height="80" as="geometry" />
        </mxCell>
        <mxCell id="fNvSGR2krIGA-_UVKDzP-12" value="Implement the machine learning model to a website application" style="rounded=0;whiteSpace=wrap;html=1;" vertex="1" parent="1">
          <mxGeometry x="20" y="930" width="140" height="80" as="geometry" />
        </mxCell>
      </root>
    </mxGraphModel>
  </diagram>
</mxfile>
